<!DOCTYPE svg PUBLIC "-//W3C//DTD SVG 1.1//EN" "http://www.w3.org/Graphics/SVG/1.1/DTD/svg11.dtd">
<!-- Uploaded to: SVG Repo, www.svgrepo.com, Transformed by: SVG Repo Mixer Tools -->
<svg fill="#9f0404" height="256px" width="256px" version="1.1" id="Icon" xmlns="http://www.w3.org/2000/svg" xmlns:xlink="http://www.w3.org/1999/xlink" viewBox="-21.12 -21.12 66.24 66.24" enable-background="new 0 0 24 24" xml:space="preserve" stroke="#9f0404" stroke-width="0.00024000000000000003" transform="matrix(-1, 0, 0, 1, 0, 0)rotate(0)">
<g id="SVGRepo_bgCarrier" stroke-width="0" transform="translate(1.4399999999999995,1.4399999999999995), scale(0.88)">
<path transform="translate(-21.12, -21.12), scale(4.14)" fill="#9f0404" d="M9.166.33a2.25 2.25 0 00-2.332 0l-5.25 3.182A2.25 2.25 0 00.5 5.436v5.128a2.25 2.25 0 001.084 1.924l5.25 3.182a2.25 2.25 0 002.332 0l5.25-3.182a2.25 2.25 0 001.084-1.924V5.436a2.25 2.25 0 00-1.084-1.924L9.166.33z" strokewidth="0"/>
</g>
<g id="SVGRepo_tracerCarrier" stroke-linecap="round" stroke-linejoin="round" stroke="#006b15" stroke-width="4.8"> <path d="M0,0v24h24V0H0z M13.54,18h-3.07L5.99,6h3.36l2.72,7.76L14.79,6h3.22L13.54,18z"/> </g>
<g id="SVGRepo_iconCarrier"> <path d="M0,0v24h24V0H0z M13.54,18h-3.07L5.99,6h3.36l2.72,7.76L14.79,6h3.22L13.54,18z"/> </g>
</svg>